<svg id="svg" version="1.1" xmlns="http://www.w3.org/2000/svg" xmlns:xlink="http://www.w3.org/1999/xlink" width="400" height="400" viewBox="0, 0, 400,400"><g id="svgg"><path id="path0" d="M174.600 192.400 C 172.840 192.574,170.950 192.837,170.400 192.983 C 169.850 193.130,168.590 193.445,167.600 193.685 C 162.377 194.949,154.469 199.782,150.623 204.059 C 148.183 206.772,148.014 206.477,148.006 199.500 L 148.000 194.000 139.605 194.000 L 131.211 194.000 131.105 207.500 L 131.000 221.000 117.000 221.000 L 103.000 221.000 102.895 207.500 L 102.789 194.000 94.395 194.000 L 86.000 194.000 86.000 229.808 L 86.000 265.616 94.300 265.508 L 102.600 265.400 102.800 250.400 L 103.000 235.400 116.200 235.288 C 123.460 235.227,129.803 235.275,130.295 235.395 L 131.190 235.613 131.295 250.506 L 131.400 265.400 139.700 265.508 L 148.000 265.616 148.006 259.908 C 148.014 252.971,148.235 252.426,150.163 254.610 C 150.935 255.484,151.574 256.326,151.583 256.481 C 151.593 256.635,152.365 257.298,153.300 257.955 C 154.235 258.611,155.514 259.602,156.143 260.157 C 163.069 266.276,179.383 269.011,190.600 265.935 C 195.640 264.553,201.732 260.996,205.200 257.411 L 207.000 255.550 205.000 253.729 C 203.900 252.728,201.361 250.309,199.357 248.354 C 195.199 244.297,195.469 244.420,194.147 245.990 C 186.046 255.617,167.943 252.672,162.139 240.783 C 155.673 227.539,161.584 212.295,174.828 208.057 C 180.228 206.329,191.235 208.836,193.317 212.268 C 194.437 214.113,194.972 213.814,200.586 208.206 C 206.406 202.393,206.522 202.199,204.978 200.856 C 197.459 194.318,186.378 191.234,174.600 192.400 " stroke="none" fill="#fbfbfb" fill-rule="evenodd"></path><path id="path1" d="M303.000 20.400 C 302.864 20.620,302.223 20.800,301.576 20.800 C 300.929 20.800,300.400 20.980,300.400 21.200 C 300.400 21.420,299.860 21.600,299.200 21.600 C 298.540 21.600,298.000 21.780,298.000 22.000 C 298.000 22.220,297.640 22.400,297.200 22.400 C 296.760 22.400,296.400 22.580,296.400 22.800 C 296.400 23.020,296.040 23.200,295.600 23.200 C 295.160 23.200,294.800 23.380,294.800 23.600 C 294.800 23.820,294.530 24.000,294.200 24.000 C 293.870 24.000,293.600 24.150,293.600 24.332 C 293.600 24.515,293.105 24.919,292.500 25.230 C 291.895 25.540,291.109 26.111,290.753 26.497 C 290.397 26.884,289.843 27.200,289.522 27.200 C 288.801 27.200,282.400 33.415,282.400 34.116 C 282.400 34.395,282.040 34.883,281.600 35.200 C 281.160 35.517,280.800 36.097,280.800 36.488 C 280.800 36.880,280.665 37.201,280.500 37.203 C 280.141 37.207,279.200 39.144,279.200 39.880 C 279.200 40.166,279.020 40.400,278.800 40.400 C 278.580 40.400,278.400 40.724,278.400 41.120 C 278.400 41.516,278.216 42.024,277.992 42.248 C 277.767 42.473,277.471 43.859,277.334 45.328 C 277.197 46.798,276.930 48.000,276.742 48.000 C 276.252 48.000,276.309 59.096,276.800 59.400 C 278.677 60.560,276.230 68.400,273.991 68.400 C 273.752 68.400,272.496 69.480,271.200 70.800 C 269.904 72.120,268.679 73.200,268.476 73.200 C 268.273 73.200,267.077 74.190,265.818 75.400 C 264.558 76.610,263.396 77.600,263.235 77.600 C 263.074 77.600,261.618 78.860,260.000 80.400 C 258.382 81.940,256.900 83.200,256.707 83.200 C 256.514 83.200,255.296 84.280,254.000 85.600 C 252.704 86.920,251.470 88.000,251.257 88.000 C 251.044 88.000,249.773 89.080,248.432 90.400 C 247.092 91.720,245.898 92.800,245.780 92.800 C 245.500 92.800,244.797 93.396,242.358 95.700 C 241.252 96.745,240.183 97.600,239.982 97.600 C 239.781 97.600,238.668 98.547,237.509 99.705 C 236.349 100.862,234.772 102.255,234.005 102.799 C 233.238 103.344,231.735 104.647,230.665 105.695 C 229.595 106.743,228.547 107.600,228.336 107.600 C 228.125 107.600,228.064 107.780,228.200 108.000 C 228.336 108.220,228.250 108.400,228.009 108.400 C 227.768 108.400,227.173 108.764,226.686 109.209 C 224.159 111.515,223.087 112.400,222.820 112.400 C 222.657 112.400,221.502 113.390,220.253 114.600 C 219.004 115.810,217.841 116.800,217.669 116.800 C 217.497 116.800,216.235 117.880,214.865 119.200 C 213.495 120.520,212.280 121.600,212.165 121.600 C 212.050 121.600,210.931 122.635,209.678 123.900 C 208.425 125.165,206.942 126.436,206.381 126.724 C 205.821 127.012,204.561 128.006,203.580 128.932 C 202.600 129.859,201.360 130.923,200.824 131.298 C 199.530 132.204,195.777 135.570,192.337 138.907 C 190.802 140.396,189.351 141.493,189.111 141.345 C 188.851 141.185,188.791 141.262,188.962 141.538 C 189.119 141.792,189.048 142.000,188.805 142.000 C 188.562 142.000,187.933 142.405,187.407 142.900 C 186.881 143.395,185.944 144.198,185.325 144.685 C 182.774 146.690,180.940 148.262,179.940 149.300 C 179.356 149.905,178.747 150.400,178.586 150.400 C 178.426 150.400,177.958 150.788,177.547 151.261 C 177.136 151.735,176.800 151.915,176.800 151.661 C 176.800 151.408,176.528 151.200,176.195 151.200 C 175.862 151.200,175.187 150.992,174.695 150.738 C 172.769 149.742,172.383 149.600,171.605 149.600 C 171.162 149.600,170.800 149.420,170.800 149.200 C 170.800 148.980,170.260 148.800,169.600 148.800 C 168.940 148.800,168.400 148.620,168.400 148.400 C 168.400 148.180,167.860 148.000,167.200 148.000 C 166.540 148.000,166.000 147.820,166.000 147.600 C 166.000 147.380,165.280 147.200,164.400 147.200 C 163.520 147.200,162.800 147.020,162.800 146.800 C 162.800 146.580,161.900 146.400,160.800 146.400 C 159.700 146.400,158.800 146.220,158.800 146.000 C 158.800 145.780,158.170 145.600,157.400 145.600 L 156.000 145.600 156.000 123.995 C 156.000 107.446,156.117 102.183,156.500 101.510 C 157.157 100.354,157.861 99.600,158.283 99.600 C 158.470 99.600,158.883 99.240,159.200 98.800 C 159.517 98.360,160.025 98.000,160.328 98.000 C 160.631 98.000,161.383 97.460,162.000 96.800 C 162.617 96.140,163.305 95.600,163.530 95.600 C 163.755 95.600,164.358 95.054,164.870 94.387 C 165.381 93.719,166.385 92.555,167.100 91.800 C 167.815 91.045,168.400 90.256,168.400 90.047 C 168.400 89.838,168.535 89.607,168.700 89.533 C 169.132 89.341,170.800 86.028,170.800 85.362 C 170.800 85.053,170.980 84.800,171.200 84.800 C 171.420 84.800,171.600 84.361,171.600 83.824 C 171.600 83.287,171.760 82.748,171.956 82.627 C 172.871 82.062,173.658 67.898,172.821 67.061 C 172.589 66.829,172.400 66.134,172.400 65.515 C 172.400 64.896,172.220 64.032,172.000 63.595 C 171.780 63.158,171.420 62.442,171.200 62.005 C 170.980 61.568,170.800 60.938,170.800 60.605 C 170.800 60.272,170.620 60.000,170.400 60.000 C 170.180 60.000,170.000 59.640,170.000 59.200 C 170.000 58.760,169.820 58.400,169.600 58.400 C 169.380 58.400,169.200 58.080,169.200 57.688 C 169.200 57.297,168.840 56.717,168.400 56.400 C 167.960 56.083,167.600 55.590,167.600 55.305 C 167.600 54.665,161.788 48.800,161.153 48.800 C 160.901 48.800,160.403 48.483,160.047 48.096 C 159.244 47.221,154.525 44.800,153.624 44.800 C 153.259 44.800,152.735 44.575,152.460 44.300 C 151.744 43.585,135.055 43.585,134.340 44.300 C 134.065 44.575,133.595 44.800,133.295 44.800 C 132.423 44.800,127.463 47.285,126.753 48.078 C 126.397 48.475,125.921 48.800,125.694 48.800 C 125.073 48.800,119.200 54.664,119.200 55.284 C 119.200 55.581,118.840 56.083,118.400 56.400 C 117.960 56.717,117.600 57.297,117.600 57.688 C 117.600 58.080,117.420 58.400,117.200 58.400 C 116.980 58.400,116.800 58.760,116.800 59.200 C 116.800 59.640,116.620 60.000,116.400 60.000 C 116.180 60.000,116.000 60.439,116.000 60.976 C 116.000 61.513,115.820 62.064,115.600 62.200 C 115.380 62.336,115.200 62.851,115.200 63.344 C 115.200 63.837,115.030 64.411,114.823 64.620 C 114.615 64.829,114.403 65.945,114.351 67.100 C 114.299 68.255,114.109 69.200,113.929 69.200 C 113.748 69.200,113.600 71.450,113.600 74.200 C 113.600 77.267,113.755 79.200,114.000 79.200 C 114.220 79.200,114.400 79.920,114.400 80.800 C 114.400 81.680,114.580 82.400,114.800 82.400 C 115.020 82.400,115.200 82.940,115.200 83.600 C 115.200 84.260,115.380 84.800,115.600 84.800 C 115.820 84.800,116.000 85.034,116.000 85.320 C 116.000 86.056,116.941 87.993,117.300 87.997 C 117.465 87.999,117.600 88.268,117.600 88.595 C 117.600 89.520,122.510 94.714,128.192 99.800 L 129.980 101.400 129.990 123.100 L 130.000 144.800 129.024 144.800 C 128.487 144.800,127.936 144.980,127.800 145.200 C 127.664 145.420,126.753 145.600,125.776 145.600 C 124.799 145.600,124.000 145.762,124.000 145.960 C 124.000 146.158,123.235 146.419,122.300 146.541 C 118.937 146.980,117.600 147.294,117.600 147.644 C 117.600 147.840,117.071 148.000,116.424 148.000 C 115.777 148.000,115.136 148.180,115.000 148.400 C 114.864 148.620,114.401 148.800,113.971 148.800 C 113.541 148.800,112.787 149.008,112.295 149.262 C 110.369 150.258,109.983 150.400,109.205 150.400 C 108.762 150.400,108.400 150.580,108.400 150.800 C 108.400 151.020,108.040 151.200,107.600 151.200 C 107.160 151.200,106.800 151.380,106.800 151.600 C 106.800 151.820,106.528 152.000,106.195 152.000 C 105.862 152.000,105.277 152.163,104.895 152.363 C 104.513 152.563,103.257 153.164,102.104 153.700 C 100.951 154.236,100.126 154.792,100.270 154.937 C 100.415 155.082,100.143 155.200,99.667 155.200 C 99.190 155.200,98.800 155.380,98.800 155.600 C 98.800 155.820,98.440 156.000,98.000 156.000 C 97.560 156.000,97.200 156.180,97.200 156.400 C 97.200 156.620,96.930 156.800,96.600 156.800 C 96.270 156.800,96.000 156.980,96.000 157.200 C 96.000 157.420,95.730 157.600,95.400 157.600 C 95.070 157.600,94.800 157.780,94.800 158.000 C 94.800 158.220,94.570 158.400,94.288 158.400 C 94.007 158.400,93.517 158.760,93.200 159.200 C 92.883 159.640,92.331 160.000,91.973 160.000 C 91.217 160.000,89.355 161.525,89.495 162.029 C 89.548 162.217,89.357 162.282,89.073 162.173 C 88.788 162.063,87.691 162.790,86.636 163.787 C 85.580 164.784,84.592 165.600,84.441 165.600 C 83.812 165.600,77.600 172.156,77.600 172.820 C 77.600 173.018,76.790 173.989,75.800 174.979 C 74.810 175.969,74.000 176.872,74.000 176.985 C 74.000 177.193,73.021 178.446,72.100 179.416 C 71.825 179.706,71.600 180.053,71.600 180.188 C 71.600 180.323,71.240 180.820,70.800 181.292 C 70.360 181.764,70.000 182.387,70.000 182.675 C 70.000 182.964,69.820 183.200,69.600 183.200 C 69.380 183.200,69.200 183.520,69.200 183.912 C 69.200 184.303,68.840 184.883,68.400 185.200 C 67.960 185.517,67.600 186.097,67.600 186.488 C 67.600 186.880,67.420 187.200,67.200 187.200 C 66.980 187.200,66.800 187.560,66.800 188.000 C 66.800 188.440,66.650 188.800,66.468 188.800 C 66.285 188.800,65.880 189.295,65.568 189.900 C 65.256 190.505,64.867 191.100,64.703 191.222 C 64.538 191.345,64.365 191.917,64.317 192.494 C 64.269 193.070,64.127 193.478,64.000 193.400 C 63.873 193.322,63.523 193.830,63.221 194.529 C 62.919 195.228,62.155 196.942,61.523 198.338 C 60.891 199.734,60.266 201.669,60.133 202.638 C 60.000 203.607,59.736 204.400,59.546 204.400 C 59.356 204.400,59.200 204.940,59.200 205.600 C 59.200 206.260,59.020 206.800,58.800 206.800 C 58.580 206.800,58.400 207.340,58.400 208.000 C 58.400 208.660,58.220 209.200,58.000 209.200 C 57.780 209.200,57.600 209.920,57.600 210.800 C 57.600 211.680,57.420 212.400,57.200 212.400 C 56.980 212.400,56.800 213.199,56.800 214.176 C 56.800 215.153,56.620 216.064,56.400 216.200 C 56.180 216.336,56.000 217.686,56.000 219.200 C 56.000 220.714,55.820 222.064,55.600 222.200 C 55.353 222.353,55.200 225.804,55.200 231.224 C 55.200 236.808,55.345 240.000,55.600 240.000 C 55.829 240.000,56.000 241.200,56.000 242.800 C 56.000 244.400,56.171 245.600,56.400 245.600 C 56.620 245.600,56.800 246.500,56.800 247.600 C 56.800 248.700,56.980 249.600,57.200 249.600 C 57.420 249.600,57.600 250.309,57.600 251.176 C 57.600 252.043,57.780 252.864,58.000 253.000 C 58.220 253.136,58.400 253.867,58.400 254.624 C 58.400 255.381,58.580 256.000,58.800 256.000 C 59.020 256.000,59.200 256.551,59.200 257.224 C 59.200 257.897,59.357 258.350,59.549 258.231 C 59.741 258.113,60.020 259.092,60.169 260.408 C 60.318 261.724,60.611 262.800,60.820 262.800 C 61.029 262.800,61.200 263.239,61.200 263.776 C 61.200 264.313,61.380 264.864,61.600 265.000 C 61.820 265.136,62.000 265.597,62.000 266.024 C 62.000 266.451,62.180 266.800,62.400 266.800 C 62.620 266.800,62.799 267.115,62.797 267.500 C 62.794 268.123,65.862 274.697,66.391 275.200 C 66.507 275.310,66.856 275.895,67.168 276.500 C 67.480 277.105,67.885 277.600,68.068 277.600 C 68.250 277.600,68.400 277.960,68.400 278.400 C 68.400 278.840,68.580 279.200,68.800 279.200 C 69.020 279.200,69.200 279.443,69.200 279.741 C 69.200 280.038,69.740 280.846,70.400 281.537 C 71.060 282.228,71.600 283.025,71.600 283.308 C 71.600 283.591,71.960 284.083,72.400 284.400 C 72.840 284.717,73.200 285.185,73.200 285.440 C 73.200 285.695,73.875 286.606,74.700 287.464 C 75.525 288.322,76.673 289.652,77.250 290.420 C 78.686 292.328,84.262 298.000,84.702 298.000 C 84.898 298.000,86.022 298.900,87.200 300.000 C 88.378 301.100,89.498 302.000,89.689 302.000 C 89.880 302.000,90.486 302.450,91.036 303.000 C 91.586 303.550,92.180 304.000,92.356 304.000 C 92.532 304.000,93.181 304.434,93.798 304.965 C 94.416 305.496,95.389 306.171,95.961 306.465 C 96.532 306.759,97.610 307.405,98.356 307.900 C 99.102 308.395,100.047 308.800,100.456 308.800 C 100.865 308.800,101.200 308.980,101.200 309.200 C 101.200 309.420,101.560 309.600,102.000 309.600 C 102.440 309.600,102.800 309.780,102.800 310.000 C 102.800 310.220,103.160 310.400,103.600 310.400 C 104.040 310.400,104.400 310.580,104.400 310.800 C 104.400 311.020,104.760 311.200,105.200 311.200 C 105.640 311.200,106.000 311.380,106.000 311.600 C 106.000 311.820,106.360 312.000,106.800 312.000 C 107.240 312.000,107.600 312.180,107.600 312.400 C 107.600 312.620,107.960 312.800,108.400 312.800 C 108.840 312.800,109.200 312.991,109.200 313.224 C 109.200 313.457,109.348 313.556,109.529 313.444 C 109.709 313.332,110.360 313.502,110.974 313.820 C 111.589 314.139,112.431 314.400,112.846 314.400 C 113.261 314.400,113.600 314.580,113.600 314.800 C 113.600 315.020,114.140 315.200,114.800 315.200 C 115.460 315.200,116.000 315.380,116.000 315.600 C 116.000 315.820,116.540 316.000,117.200 316.000 C 117.860 316.000,118.400 316.180,118.400 316.400 C 118.400 316.620,119.120 316.800,120.000 316.800 C 120.880 316.800,121.600 316.980,121.600 317.200 C 121.600 317.420,122.320 317.600,123.200 317.600 C 124.080 317.600,124.800 317.780,124.800 318.000 C 124.800 318.220,125.689 318.400,126.776 318.400 C 127.863 318.400,128.864 318.580,129.000 318.800 C 129.136 319.020,130.846 319.200,132.800 319.200 C 134.754 319.200,136.464 319.380,136.600 319.600 C 136.931 320.135,149.069 320.135,149.400 319.600 C 149.536 319.380,150.976 319.200,152.600 319.200 C 154.224 319.200,155.664 319.020,155.800 318.800 C 155.936 318.580,157.027 318.400,158.224 318.400 C 159.421 318.400,160.400 318.220,160.400 318.000 C 160.400 317.780,161.120 317.600,162.000 317.600 C 162.880 317.600,163.600 317.420,163.600 317.200 C 163.600 316.980,164.320 316.800,165.200 316.800 C 166.080 316.800,166.800 316.620,166.800 316.400 C 166.800 316.180,167.340 316.000,168.000 316.000 C 168.660 316.000,169.200 315.820,169.200 315.600 C 169.200 315.380,169.740 315.200,170.400 315.200 C 171.060 315.200,171.600 315.020,171.600 314.800 C 171.600 314.580,171.939 314.400,172.354 314.400 C 172.769 314.400,173.611 314.139,174.226 313.820 C 174.840 313.502,175.491 313.332,175.671 313.444 C 175.852 313.556,176.000 313.457,176.000 313.224 C 176.000 312.991,176.360 312.800,176.800 312.800 C 177.240 312.800,177.600 312.620,177.600 312.400 C 177.600 312.180,177.960 312.000,178.400 312.000 C 178.840 312.000,179.200 311.820,179.200 311.600 C 179.200 311.380,179.560 311.200,180.000 311.200 C 180.440 311.200,180.800 311.020,180.800 310.800 C 180.800 310.580,181.160 310.400,181.600 310.400 C 182.040 310.400,182.400 310.220,182.400 310.000 C 182.400 309.780,182.760 309.600,183.200 309.600 C 183.640 309.600,184.000 309.443,184.000 309.250 C 184.000 309.058,184.548 308.790,185.219 308.656 C 185.889 308.522,187.227 307.870,188.191 307.206 C 189.155 306.543,190.137 306.000,190.372 306.000 C 190.607 306.000,190.800 305.812,190.800 305.582 C 190.800 305.352,191.250 305.614,191.800 306.164 C 192.350 306.714,192.800 307.269,192.800 307.399 C 192.800 307.656,193.116 308.056,194.849 309.996 C 195.482 310.705,196.000 311.440,196.000 311.629 C 196.000 311.818,196.630 312.603,197.400 313.373 C 198.170 314.143,198.800 314.938,198.800 315.138 C 198.800 315.339,199.520 316.245,200.400 317.152 C 201.280 318.059,202.000 318.959,202.000 319.152 C 202.000 319.345,202.720 320.245,203.600 321.152 C 204.480 322.059,205.200 322.919,205.200 323.062 C 205.200 323.206,205.920 324.009,206.800 324.846 C 207.680 325.683,208.400 326.562,208.400 326.798 C 208.400 327.035,208.764 327.627,209.209 328.114 C 211.578 330.710,212.400 331.718,212.400 332.029 C 212.400 332.218,213.030 333.003,213.800 333.773 C 214.570 334.543,215.200 335.449,215.200 335.787 C 215.200 336.124,215.380 336.400,215.600 336.400 C 215.820 336.400,216.000 337.300,216.000 338.400 C 216.000 339.500,215.820 340.400,215.600 340.400 C 215.380 340.400,215.200 341.120,215.200 342.000 C 215.200 342.880,215.020 343.600,214.800 343.600 C 214.550 343.600,214.400 346.059,214.400 350.176 C 214.400 354.129,214.560 356.851,214.800 357.000 C 215.020 357.136,215.200 357.777,215.200 358.424 C 215.200 359.071,215.380 359.600,215.600 359.600 C 215.820 359.600,216.000 360.151,216.000 360.824 C 216.000 361.537,216.167 361.944,216.400 361.800 C 216.627 361.660,216.800 361.996,216.800 362.576 C 216.800 363.139,216.980 363.600,217.200 363.600 C 217.420 363.600,217.600 363.920,217.600 364.312 C 217.600 364.703,217.960 365.283,218.400 365.600 C 218.840 365.917,219.200 366.413,219.200 366.702 C 219.200 367.369,227.057 375.200,227.726 375.200 C 227.999 375.200,228.483 375.560,228.800 376.000 C 229.117 376.440,229.697 376.800,230.088 376.800 C 230.480 376.800,230.800 376.980,230.800 377.200 C 230.800 377.420,231.160 377.600,231.600 377.600 C 232.040 377.600,232.400 377.780,232.400 378.000 C 232.400 378.220,232.940 378.400,233.600 378.400 C 234.260 378.400,234.800 378.580,234.800 378.800 C 234.800 379.020,235.340 379.200,236.000 379.200 C 236.660 379.200,237.200 379.380,237.200 379.600 C 237.200 379.851,239.800 380.000,244.200 380.000 C 248.600 380.000,251.200 379.851,251.200 379.600 C 251.200 379.380,251.920 379.200,252.800 379.200 C 253.680 379.200,254.400 379.020,254.400 378.800 C 254.400 378.580,254.839 378.400,255.376 378.400 C 255.913 378.400,256.464 378.220,256.600 378.000 C 256.736 377.780,257.197 377.600,257.624 377.600 C 258.051 377.600,258.400 377.420,258.400 377.200 C 258.400 376.980,258.670 376.800,259.000 376.800 C 259.330 376.800,259.600 376.620,259.600 376.400 C 259.600 376.180,259.960 376.000,260.400 376.000 C 260.840 376.000,261.200 375.840,261.200 375.643 C 261.200 375.447,261.633 375.178,262.161 375.045 C 263.280 374.765,270.000 368.307,270.000 367.513 C 270.000 367.218,270.360 366.717,270.800 366.400 C 271.240 366.083,271.600 365.503,271.600 365.112 C 271.600 364.720,271.780 364.400,272.000 364.400 C 272.220 364.400,272.400 364.055,272.400 363.633 C 272.400 363.212,272.578 362.807,272.797 362.733 C 273.015 362.660,273.234 362.105,273.284 361.500 C 273.334 360.895,273.476 360.400,273.600 360.400 C 274.800 360.400,275.757 342.110,274.600 341.285 C 274.380 341.128,274.137 340.550,274.059 340.000 C 273.982 339.450,273.577 338.291,273.159 337.425 C 272.742 336.559,272.400 335.614,272.400 335.325 C 272.400 335.036,272.220 334.800,272.000 334.800 C 271.780 334.800,271.600 334.564,271.600 334.275 C 271.600 333.987,271.240 333.364,270.800 332.892 C 270.360 332.420,270.000 331.878,270.000 331.687 C 270.000 331.253,266.238 327.200,265.835 327.200 C 265.671 327.200,264.846 326.480,264.000 325.600 C 263.154 324.720,262.218 324.000,261.920 324.000 C 261.621 324.000,261.117 323.640,260.800 323.200 C 260.483 322.760,259.903 322.400,259.512 322.400 C 259.120 322.400,258.800 322.220,258.800 322.000 C 258.800 321.780,258.440 321.600,258.000 321.600 C 257.560 321.600,257.200 321.420,257.200 321.200 C 257.200 320.980,256.750 320.800,256.200 320.800 C 255.650 320.800,255.200 320.620,255.200 320.400 C 255.200 320.180,254.671 320.000,254.024 320.000 C 253.377 320.000,252.736 319.820,252.600 319.600 C 252.464 319.380,251.373 319.200,250.176 319.200 C 248.979 319.200,248.000 319.020,248.000 318.800 C 248.000 318.567,246.675 318.400,244.824 318.400 C 243.077 318.400,241.536 318.580,241.400 318.800 C 240.307 320.569,233.200 317.525,233.200 315.289 C 233.200 315.106,232.120 313.835,230.800 312.465 C 229.480 311.095,228.400 309.885,228.400 309.777 C 228.400 309.668,227.635 308.784,226.700 307.813 C 224.797 305.835,224.491 305.463,223.495 303.912 C 223.111 303.313,222.210 302.233,221.492 301.512 C 220.774 300.790,219.747 299.570,219.209 298.800 C 218.671 298.030,217.729 296.923,217.115 296.340 C 216.502 295.756,216.000 295.160,216.000 295.014 C 216.000 294.868,215.100 293.871,214.000 292.800 C 212.900 291.729,212.000 290.642,212.000 290.386 C 212.000 290.130,211.441 289.399,210.758 288.760 C 210.074 288.122,209.714 287.600,209.958 287.600 C 210.201 287.600,210.400 287.370,210.400 287.088 C 210.400 286.807,210.760 286.317,211.200 286.000 C 211.640 285.683,212.000 285.169,212.000 284.859 C 212.000 284.548,212.316 284.003,212.703 283.647 C 213.089 283.291,213.660 282.505,213.970 281.900 C 214.281 281.295,214.685 280.800,214.868 280.800 C 215.050 280.800,215.200 280.480,215.200 280.088 C 215.200 279.697,215.560 279.117,216.000 278.800 C 216.440 278.483,216.800 277.903,216.800 277.512 C 216.800 277.120,216.980 276.800,217.200 276.800 C 217.420 276.800,217.600 276.440,217.600 276.000 C 217.600 275.560,217.746 275.200,217.925 275.200 C 218.104 275.200,218.498 274.570,218.800 273.800 C 219.102 273.030,219.496 272.400,219.675 272.400 C 219.854 272.400,220.000 272.040,220.000 271.600 C 220.000 271.160,220.180 270.800,220.400 270.800 C 220.620 270.800,220.800 270.535,220.800 270.212 C 220.800 269.889,221.160 268.983,221.600 268.200 C 222.040 267.417,222.400 266.436,222.400 266.021 C 222.400 265.606,222.535 265.207,222.701 265.133 C 223.143 264.937,224.779 259.921,225.054 257.922 C 225.184 256.975,225.450 256.140,225.645 256.067 C 225.840 255.993,226.000 255.243,226.000 254.400 C 226.000 253.557,226.170 252.807,226.379 252.733 C 226.587 252.660,226.800 251.745,226.853 250.700 C 226.906 249.655,227.096 248.800,227.275 248.800 C 227.454 248.800,227.600 247.911,227.600 246.824 C 227.600 245.737,227.780 244.736,228.000 244.600 C 228.227 244.460,228.400 242.470,228.400 240.000 C 228.400 237.530,228.573 235.540,228.800 235.400 C 229.020 235.264,229.200 233.633,229.200 231.776 C 229.200 229.792,229.035 228.400,228.800 228.400 C 228.557 228.400,228.400 226.600,228.400 223.800 C 228.400 221.000,228.243 219.200,228.000 219.200 C 227.778 219.200,227.600 218.133,227.600 216.800 C 227.600 215.467,227.422 214.400,227.200 214.400 C 226.980 214.400,226.800 213.601,226.800 212.624 C 226.800 211.647,226.620 210.736,226.400 210.600 C 226.180 210.464,226.000 209.733,226.000 208.976 C 226.000 208.219,225.838 207.600,225.639 207.600 C 225.441 207.600,225.153 206.520,225.000 205.200 C 224.847 203.880,224.559 202.800,224.361 202.800 C 224.162 202.800,224.000 202.361,224.000 201.824 C 224.000 201.287,223.820 200.736,223.600 200.600 C 223.380 200.464,223.200 200.091,223.200 199.772 C 223.200 199.188,222.183 196.721,220.763 193.862 C 220.344 193.016,220.000 192.061,220.000 191.739 C 220.000 191.416,219.820 191.264,219.600 191.400 C 219.380 191.536,219.200 191.311,219.200 190.899 C 219.200 190.488,218.885 189.795,218.500 189.360 C 218.115 188.925,217.742 188.306,217.670 187.984 C 217.599 187.663,217.374 187.340,217.170 187.267 C 216.967 187.193,216.800 186.788,216.800 186.367 C 216.800 185.945,216.620 185.600,216.400 185.600 C 216.180 185.600,216.000 185.364,216.000 185.075 C 216.000 184.787,215.685 184.202,215.300 183.775 C 214.915 183.349,214.345 182.505,214.032 181.900 C 213.720 181.295,213.315 180.800,213.132 180.800 C 212.950 180.800,212.800 180.557,212.800 180.259 C 212.800 179.626,210.576 177.200,209.997 177.200 C 209.778 177.200,209.600 176.922,209.600 176.583 C 209.600 175.939,209.465 175.744,207.496 173.546 C 206.832 172.806,206.025 171.797,205.701 171.303 C 205.377 170.810,204.924 170.523,204.694 170.665 C 204.465 170.807,204.388 170.743,204.524 170.523 C 204.757 170.145,202.741 167.869,202.372 168.094 C 202.278 168.152,202.247 168.123,202.304 168.030 C 202.460 167.772,200.713 166.000,200.302 166.000 C 198.662 166.000,198.475 163.965,200.030 163.046 C 200.706 162.647,202.051 161.528,203.019 160.560 C 203.987 159.592,204.953 158.800,205.165 158.800 C 205.557 158.800,208.193 156.684,210.882 154.211 C 211.697 153.461,212.774 152.628,213.274 152.360 C 213.775 152.092,214.849 151.182,215.661 150.336 C 216.473 149.491,217.346 148.800,217.600 148.800 C 217.854 148.800,218.754 148.080,219.600 147.200 C 220.446 146.320,221.287 145.600,221.471 145.600 C 221.654 145.600,222.569 144.880,223.503 144.000 C 224.437 143.120,225.299 142.400,225.418 142.400 C 225.689 142.400,226.466 141.759,228.208 140.100 C 228.959 139.385,229.738 138.800,229.938 138.800 C 230.139 138.800,231.045 138.080,231.952 137.200 C 232.859 136.320,233.759 135.600,233.952 135.600 C 234.145 135.600,235.045 134.880,235.952 134.000 C 236.859 133.120,237.704 132.400,237.829 132.400 C 237.954 132.400,238.295 132.175,238.585 131.900 C 238.876 131.625,239.877 130.770,240.810 130.000 C 241.743 129.230,243.288 127.835,244.243 126.900 C 245.198 125.965,246.216 125.200,246.506 125.200 C 246.796 125.200,247.656 124.614,248.417 123.897 C 249.177 123.180,250.430 122.152,251.200 121.612 C 251.970 121.073,253.077 120.129,253.660 119.515 C 254.244 118.902,254.842 118.400,254.989 118.400 C 255.137 118.400,255.495 118.175,255.785 117.900 C 256.076 117.625,257.077 116.770,258.010 116.000 C 258.943 115.230,260.488 113.835,261.443 112.900 C 262.398 111.965,263.381 111.200,263.629 111.200 C 263.877 111.200,264.556 110.705,265.140 110.100 C 265.723 109.495,266.886 108.528,267.724 107.951 C 269.784 106.532,272.612 104.158,274.693 102.100 C 275.638 101.165,276.603 100.400,276.837 100.400 C 277.071 100.400,277.954 99.680,278.800 98.800 C 279.646 97.920,280.513 97.200,280.728 97.200 C 280.943 97.200,282.038 96.300,283.161 95.200 C 284.285 94.100,285.407 93.200,285.655 93.200 C 285.903 93.200,286.397 92.876,286.753 92.479 C 287.109 92.083,288.120 91.229,289.000 90.581 C 289.880 89.933,291.077 88.907,291.660 88.301 C 292.244 87.696,293.009 87.200,293.360 87.200 C 293.712 87.200,294.000 87.020,294.000 86.800 C 294.000 86.580,294.720 86.400,295.600 86.400 C 296.480 86.400,297.200 86.580,297.200 86.800 C 297.200 87.020,297.472 87.200,297.805 87.200 C 298.138 87.200,298.723 87.358,299.105 87.551 C 300.426 88.218,302.662 88.800,303.905 88.800 C 304.591 88.800,305.264 88.980,305.400 89.200 C 305.543 89.432,307.730 89.600,310.600 89.600 C 313.470 89.600,315.657 89.432,315.800 89.200 C 315.936 88.980,316.609 88.800,317.295 88.800 C 318.794 88.800,321.923 87.858,324.095 86.753 C 324.477 86.559,325.062 86.400,325.395 86.400 C 325.728 86.400,326.000 86.220,326.000 86.000 C 326.000 85.780,326.236 85.600,326.525 85.600 C 326.813 85.600,327.436 85.240,327.908 84.800 C 328.380 84.360,329.004 84.000,329.295 84.000 C 329.586 84.000,330.083 83.640,330.400 83.200 C 330.717 82.760,331.198 82.400,331.469 82.400 C 332.106 82.400,338.000 76.513,338.000 75.877 C 338.000 75.610,338.360 75.168,338.800 74.893 C 339.240 74.618,339.600 74.223,339.600 74.014 C 339.600 73.806,340.050 72.972,340.600 72.162 C 341.150 71.351,341.600 70.353,341.600 69.944 C 341.600 69.535,341.780 69.200,342.000 69.200 C 342.220 69.200,342.400 68.660,342.400 68.000 C 342.400 67.340,342.580 66.800,342.800 66.800 C 343.020 66.800,343.200 66.260,343.200 65.600 C 343.200 64.940,343.380 64.400,343.600 64.400 C 343.820 64.400,344.000 63.680,344.000 62.800 C 344.000 61.920,344.180 61.200,344.400 61.200 C 344.650 61.200,344.800 58.808,344.800 54.824 C 344.800 51.004,344.640 48.348,344.400 48.200 C 344.180 48.064,344.000 47.153,344.000 46.176 C 344.000 45.199,343.820 44.400,343.600 44.400 C 343.380 44.400,343.200 43.860,343.200 43.200 C 343.200 42.540,343.020 42.000,342.800 42.000 C 342.580 42.000,342.400 41.460,342.400 40.800 C 342.400 40.140,342.220 39.600,342.000 39.600 C 341.780 39.600,341.600 39.336,341.600 39.014 C 341.600 38.201,340.324 35.600,339.926 35.600 C 339.747 35.600,339.600 35.375,339.600 35.100 C 339.599 34.825,339.194 34.121,338.700 33.536 C 338.205 32.951,337.223 31.766,336.518 30.903 C 335.813 30.040,334.463 28.809,333.518 28.167 C 332.573 27.525,331.740 26.865,331.667 26.700 C 331.593 26.535,331.228 26.400,330.855 26.400 C 330.482 26.400,329.917 26.040,329.600 25.600 C 329.283 25.160,328.703 24.800,328.312 24.800 C 327.920 24.800,327.600 24.620,327.600 24.400 C 327.600 24.180,327.240 24.000,326.800 24.000 C 326.360 24.000,325.999 23.865,325.997 23.700 C 325.993 23.341,324.056 22.400,323.320 22.400 C 323.034 22.400,322.800 22.220,322.800 22.000 C 322.800 21.780,322.361 21.600,321.824 21.600 C 321.287 21.600,320.736 21.420,320.600 21.200 C 320.464 20.980,319.733 20.800,318.976 20.800 C 318.219 20.800,317.600 20.620,317.600 20.400 C 317.600 20.148,314.941 20.000,310.424 20.000 C 306.071 20.000,303.150 20.157,303.000 20.400 M186.400 191.811 C 187.610 191.955,188.771 192.237,188.980 192.437 C 189.189 192.637,189.943 192.800,190.656 192.800 C 191.369 192.800,192.064 192.980,192.200 193.200 C 192.336 193.420,192.799 193.600,193.229 193.600 C 193.659 193.600,194.368 193.780,194.805 194.000 C 195.242 194.220,195.958 194.580,196.395 194.800 C 196.832 195.020,197.362 195.200,197.573 195.200 C 199.183 195.200,206.800 201.087,206.800 202.332 C 206.800 203.045,195.684 214.400,194.986 214.400 C 194.753 214.400,193.859 213.680,193.000 212.800 C 192.141 211.920,191.204 211.200,190.919 211.200 C 190.633 211.200,190.400 211.064,190.400 210.898 C 190.400 210.731,189.815 210.356,189.100 210.064 C 188.385 209.772,187.440 209.382,187.000 209.197 C 183.949 207.914,173.600 207.957,173.600 209.253 C 173.600 209.444,173.347 209.600,173.038 209.600 C 170.747 209.600,164.525 215.132,162.833 218.673 C 162.327 219.733,161.752 220.913,161.556 221.295 C 161.360 221.677,161.200 222.431,161.200 222.971 C 161.200 223.511,161.020 224.064,160.800 224.200 C 160.567 224.344,160.400 226.596,160.400 229.600 C 160.400 232.604,160.567 234.856,160.800 235.000 C 161.020 235.136,161.200 235.689,161.200 236.229 C 161.200 236.769,161.360 237.523,161.556 237.905 C 161.752 238.287,162.337 239.500,162.856 240.599 C 168.169 251.851,185.202 254.590,193.647 245.550 C 195.469 243.600,195.353 243.532,203.600 251.389 C 208.674 256.224,208.566 255.476,204.681 258.867 C 202.833 260.480,200.528 262.229,199.560 262.753 C 197.011 264.134,194.732 265.263,193.700 265.657 C 193.205 265.846,192.395 266.166,191.900 266.370 C 188.467 267.781,180.133 268.457,174.800 267.758 C 167.679 266.824,167.210 266.740,166.974 266.358 C 166.852 266.161,166.419 266.000,166.011 266.000 C 165.366 266.000,157.338 262.170,156.800 261.605 C 156.690 261.490,155.880 260.867,155.000 260.220 C 154.120 259.574,152.370 257.997,151.111 256.716 L 148.822 254.387 148.711 260.094 L 148.600 265.800 139.600 265.800 L 130.600 265.800 130.400 251.000 L 130.200 236.200 116.905 236.095 L 103.610 235.989 103.505 250.895 L 103.400 265.800 94.200 265.800 L 85.000 265.800 85.000 229.800 L 85.000 193.800 94.200 193.800 L 103.400 193.800 103.505 207.105 L 103.611 220.411 116.905 220.305 L 130.200 220.200 130.305 206.900 L 130.411 193.600 139.605 193.600 L 148.800 193.600 148.800 199.253 L 148.800 204.907 151.100 202.526 C 154.561 198.944,163.386 193.600,165.841 193.600 C 166.342 193.600,166.864 193.420,167.000 193.200 C 167.136 192.980,167.766 192.800,168.400 192.800 C 169.034 192.800,169.664 192.620,169.800 192.400 C 169.936 192.180,170.982 191.997,172.124 191.994 C 173.266 191.991,174.470 191.807,174.800 191.587 C 175.410 191.180,182.215 191.311,186.400 191.811 " stroke="none" fill="#3c54b4" fill-rule="evenodd"></path><path id="path2" d="M175.000 191.970 C 173.673 192.101,175.731 192.206,179.600 192.207 C 184.097 192.207,185.670 192.116,184.000 191.951 C 180.903 191.644,178.258 191.650,175.000 191.970 M169.800 192.800 C 168.711 193.077,168.693 193.107,169.600 193.125 C 170.150 193.135,170.960 192.989,171.400 192.800 C 172.386 192.376,171.466 192.376,169.800 192.800 M187.800 192.781 C 188.568 193.129,190.710 193.356,190.367 193.053 C 190.275 192.972,189.480 192.796,188.600 192.662 C 187.485 192.493,187.242 192.529,187.800 192.781 M190.800 193.363 C 190.800 193.452,191.835 193.850,193.100 194.247 C 196.150 195.204,199.761 196.967,202.100 198.640 C 203.145 199.387,203.998 199.864,203.997 199.699 C 203.993 199.363,199.492 196.367,198.275 195.892 C 197.842 195.723,196.928 195.330,196.244 195.019 C 194.000 194.000,190.800 193.026,190.800 193.363 M85.787 194.092 C 85.681 194.371,85.641 210.620,85.699 230.200 L 85.804 265.800 85.902 229.900 L 86.000 194.000 94.395 194.000 L 102.789 194.000 102.895 207.500 L 103.000 221.000 117.000 221.000 L 131.000 221.000 131.105 207.500 L 131.211 194.000 139.605 194.000 L 148.000 194.000 148.006 199.500 C 148.011 204.204,148.356 206.708,148.899 205.988 C 148.977 205.885,150.112 204.643,151.420 203.229 C 152.729 201.815,153.423 200.915,152.961 201.229 C 152.500 201.543,151.374 202.667,150.459 203.727 C 148.435 206.072,148.438 206.077,148.305 199.200 L 148.200 193.800 139.600 193.800 L 131.000 193.800 130.895 207.300 L 130.789 220.800 117.000 220.800 L 103.211 220.800 103.105 207.300 L 103.000 193.800 94.491 193.692 C 87.900 193.608,85.937 193.699,85.787 194.092 M163.300 194.826 C 162.365 195.265,161.600 195.702,161.600 195.799 C 161.600 196.019,162.545 195.660,164.378 194.743 C 166.329 193.767,165.407 193.839,163.300 194.826 M155.913 198.902 C 154.875 199.616,154.020 200.347,154.013 200.527 C 154.006 200.707,154.495 200.487,155.100 200.038 C 158.522 197.500,159.074 196.729,155.913 198.902 M204.400 200.234 C 204.400 200.439,204.747 200.824,205.170 201.089 C 205.594 201.353,206.019 201.981,206.116 202.485 C 206.274 203.312,206.296 203.320,206.346 202.570 C 206.375 202.113,205.950 201.317,205.400 200.800 C 204.850 200.283,204.400 200.029,204.400 200.234 M200.886 207.824 C 200.383 208.361,200.127 208.800,200.316 208.800 C 200.506 208.800,201.083 208.350,201.600 207.800 C 202.117 207.250,202.373 206.811,202.170 206.824 C 201.966 206.838,201.389 207.288,200.886 207.824 M175.283 207.940 C 174.994 208.124,175.789 208.196,177.083 208.104 C 180.242 207.879,180.658 207.668,178.000 207.638 C 176.790 207.624,175.567 207.760,175.283 207.940 M181.700 207.887 C 182.305 207.978,183.295 207.978,183.900 207.887 C 184.505 207.795,184.010 207.720,182.800 207.720 C 181.590 207.720,181.095 207.795,181.700 207.887 M185.600 208.382 C 185.930 208.605,186.444 208.791,186.742 208.794 C 187.040 208.797,188.174 209.247,189.261 209.793 C 190.349 210.340,191.142 210.630,191.025 210.440 C 190.733 209.968,187.675 208.577,186.200 208.245 C 185.324 208.049,185.162 208.085,185.600 208.382 M172.600 208.800 C 172.308 209.273,172.699 209.273,173.800 208.800 C 174.571 208.469,174.569 208.455,173.724 208.428 C 173.242 208.413,172.736 208.580,172.600 208.800 M169.958 210.128 C 168.152 211.221,166.400 212.629,166.400 212.989 C 166.400 213.139,167.152 212.618,168.072 211.831 C 168.992 211.044,169.937 210.394,170.172 210.387 C 170.407 210.380,170.949 210.110,171.376 209.787 C 172.540 208.907,171.604 209.132,169.958 210.128 M192.981 212.319 C 194.923 214.384,195.060 214.386,197.000 212.400 C 197.859 211.520,198.430 210.800,198.268 210.800 C 198.106 210.800,197.341 211.432,196.569 212.205 C 195.135 213.639,194.195 213.665,193.317 212.295 C 193.143 212.023,192.640 211.539,192.200 211.219 C 191.760 210.899,192.112 211.394,192.981 212.319 M163.407 216.226 C 162.809 217.011,162.401 217.734,162.501 217.834 C 162.601 217.934,163.162 217.293,163.747 216.408 C 165.065 214.416,164.868 214.311,163.407 216.226 M161.423 219.806 C 160.515 221.980,160.676 222.511,161.616 220.440 C 162.055 219.473,162.332 218.598,162.231 218.497 C 162.130 218.396,161.766 218.985,161.423 219.806 M160.256 223.284 C 160.121 223.788,160.027 224.560,160.046 225.000 C 160.065 225.440,160.245 225.098,160.446 224.240 C 160.836 222.578,160.670 221.740,160.256 223.284 M159.734 229.600 C 159.734 231.250,159.805 231.925,159.891 231.100 C 159.978 230.275,159.978 228.925,159.891 228.100 C 159.805 227.275,159.734 227.950,159.734 229.600 M102.991 235.700 C 102.676 236.555,102.583 265.600,102.895 265.600 C 103.057 265.600,103.237 258.895,103.295 250.700 L 103.400 235.800 116.200 235.688 C 123.240 235.627,129.405 235.675,129.900 235.796 L 130.800 236.015 130.800 250.808 C 130.800 258.943,130.935 265.600,131.100 265.600 C 131.647 265.600,131.242 235.874,130.690 235.524 C 129.804 234.961,103.201 235.130,102.991 235.700 M163.928 243.825 C 165.111 245.592,168.060 248.210,169.960 249.180 C 172.328 250.388,171.977 249.889,169.460 248.468 C 168.283 247.804,166.372 246.212,165.214 244.930 C 164.056 243.649,163.477 243.151,163.928 243.825 M193.131 246.407 C 192.103 247.500,191.583 248.223,191.976 248.013 C 192.369 247.803,193.229 247.017,193.886 246.268 C 194.544 245.519,195.334 244.806,195.641 244.684 C 196.094 244.505,196.086 244.459,195.600 244.441 C 195.270 244.429,194.159 245.313,193.131 246.407 M199.754 248.724 C 201.759 250.663,204.209 252.997,205.199 253.911 L 206.997 255.572 204.999 257.606 C 203.899 258.724,202.145 260.189,201.100 260.861 C 198.823 262.326,198.554 262.830,200.748 261.522 C 202.478 260.491,207.200 256.217,207.200 255.683 C 207.200 255.344,196.641 245.200,196.288 245.200 C 196.189 245.200,197.749 246.786,199.754 248.724 M189.400 249.227 C 188.740 249.650,188.405 249.997,188.656 249.998 C 188.906 249.999,189.536 249.646,190.056 249.213 C 191.245 248.223,190.959 248.229,189.400 249.227 M172.400 250.400 C 172.730 250.613,173.270 250.788,173.600 250.788 C 174.133 250.788,174.133 250.745,173.600 250.400 C 173.270 250.187,172.730 250.012,172.400 250.012 C 171.867 250.012,171.867 250.055,172.400 250.400 M175.000 251.200 C 175.440 251.389,176.340 251.535,177.000 251.525 L 178.200 251.505 177.000 251.200 C 176.340 251.032,175.440 250.886,175.000 250.875 L 174.200 250.856 175.000 251.200 M183.200 251.200 L 181.800 251.495 183.200 251.541 C 183.970 251.567,184.870 251.413,185.200 251.200 C 185.927 250.730,185.433 250.730,183.200 251.200 M148.192 254.100 C 148.070 254.595,148.027 257.430,148.097 260.400 L 148.225 265.800 148.313 259.900 C 148.405 253.651,148.541 253.301,150.139 255.200 C 150.694 255.860,151.260 256.400,151.397 256.400 C 151.746 256.400,149.065 253.216,148.708 253.207 C 148.547 253.203,148.315 253.605,148.192 254.100 M151.600 256.925 C 151.600 257.163,155.897 260.400,156.214 260.400 C 156.350 260.400,155.953 259.984,155.331 259.475 C 153.742 258.176,151.600 256.711,151.600 256.925 M197.200 263.233 L 196.200 264.048 197.500 263.414 C 198.215 263.065,198.800 262.694,198.800 262.590 C 198.800 262.192,198.163 262.448,197.200 263.233 M161.200 263.390 C 161.200 263.695,163.656 264.877,163.862 264.671 C 163.965 264.568,163.471 264.195,162.763 263.842 C 161.376 263.150,161.200 263.099,161.200 263.390 M164.800 265.200 C 165.130 265.413,165.670 265.588,166.000 265.588 C 166.533 265.588,166.533 265.545,166.000 265.200 C 165.670 264.987,165.130 264.812,164.800 264.812 C 164.267 264.812,164.267 264.855,164.800 265.200 M167.200 266.000 C 167.530 266.213,168.070 266.388,168.400 266.388 C 168.933 266.388,168.933 266.345,168.400 266.000 C 168.070 265.787,167.530 265.612,167.200 265.612 C 166.667 265.612,166.667 265.655,167.200 266.000 M190.400 266.000 C 189.867 266.345,189.867 266.388,190.400 266.388 C 190.730 266.388,191.270 266.213,191.600 266.000 C 192.133 265.655,192.133 265.612,191.600 265.612 C 191.270 265.612,190.730 265.787,190.400 266.000 M170.600 266.790 C 171.364 267.128,173.914 267.357,173.567 267.056 C 173.475 266.976,172.590 266.804,171.600 266.673 C 170.398 266.514,170.066 266.553,170.600 266.790 M186.600 266.800 C 185.522 267.074,185.502 267.106,186.400 267.113 C 186.950 267.117,187.850 266.976,188.400 266.800 C 189.744 266.369,188.292 266.369,186.600 266.800 M177.300 267.496 C 178.565 267.575,180.635 267.575,181.900 267.496 C 183.165 267.416,182.130 267.351,179.600 267.351 C 177.070 267.351,176.035 267.416,177.300 267.496 " stroke="none" fill="#949cd4" fill-rule="evenodd"></path><path id="path3" d="M174.938 191.506 C 174.684 191.668,176.782 191.800,179.600 191.800 C 182.418 191.800,184.516 191.668,184.262 191.506 C 184.008 191.344,181.910 191.212,179.600 191.212 C 177.290 191.212,175.192 191.344,174.938 191.506 M169.800 192.400 C 169.508 192.873,169.899 192.873,171.000 192.400 C 171.771 192.069,171.769 192.055,170.924 192.028 C 170.442 192.013,169.936 192.180,169.800 192.400 M84.984 194.100 C 84.413 195.597,85.016 265.790,85.600 265.833 C 85.954 265.859,85.993 265.808,85.696 265.708 C 85.294 265.574,85.213 258.224,85.296 229.570 C 85.353 209.786,85.349 193.600,85.287 193.600 C 85.226 193.600,85.089 193.825,84.984 194.100 M130.397 206.800 L 130.200 220.200 116.905 220.305 L 103.611 220.411 103.497 207.105 L 103.383 193.800 103.392 207.200 L 103.400 220.600 116.891 220.705 L 130.382 220.811 130.603 219.905 C 130.724 219.407,130.772 213.240,130.709 206.200 L 130.594 193.400 130.397 206.800 M148.488 199.300 C 148.398 205.362,148.528 205.847,149.838 204.300 L 150.600 203.400 149.711 204.152 L 148.823 204.904 148.699 199.152 L 148.576 193.400 148.488 199.300 M204.289 199.733 C 207.128 202.333,207.183 202.192,200.700 208.795 L 195.000 214.600 200.900 208.805 C 207.866 201.963,207.874 201.923,202.989 198.387 C 202.543 198.064,203.128 198.670,204.289 199.733 M154.310 199.515 C 153.491 200.112,152.816 200.750,152.810 200.934 C 152.805 201.117,153.520 200.697,154.400 200.000 C 155.280 199.303,156.000 198.658,156.000 198.566 C 156.000 198.303,155.886 198.367,154.310 199.515 M184.000 208.400 C 184.330 208.613,184.870 208.788,185.200 208.788 C 185.733 208.788,185.733 208.745,185.200 208.400 C 184.870 208.187,184.330 208.012,184.000 208.012 C 183.467 208.012,183.467 208.055,184.000 208.400 M193.000 212.800 C 193.859 213.680,194.652 214.400,194.762 214.400 C 194.872 214.400,194.259 213.680,193.400 212.800 C 192.541 211.920,191.748 211.200,191.638 211.200 C 191.528 211.200,192.141 211.920,193.000 212.800 M166.368 213.500 C 164.506 215.503,163.438 216.800,163.649 216.800 C 163.744 216.800,164.773 215.720,165.935 214.400 C 168.269 211.748,168.562 211.140,166.368 213.500 M160.109 229.600 C 160.109 230.590,160.187 230.995,160.282 230.500 C 160.378 230.005,160.378 229.195,160.282 228.700 C 160.187 228.205,160.109 228.610,160.109 229.600 M103.295 250.667 C 103.222 262.114,103.085 265.580,102.700 265.735 C 102.308 265.893,102.311 265.944,102.713 265.968 C 103.583 266.022,103.613 265.415,103.500 250.398 L 103.390 235.800 103.295 250.667 M130.400 250.905 C 130.556 262.476,130.712 265.757,131.110 265.837 C 131.391 265.894,131.436 265.849,131.210 265.737 C 130.941 265.603,130.800 260.523,130.800 250.990 C 130.800 242.992,130.665 236.364,130.500 236.261 C 130.335 236.159,130.290 242.749,130.400 250.905 M164.011 243.046 C 164.017 243.241,164.512 243.947,165.111 244.616 C 166.317 245.962,166.211 245.619,164.872 243.846 C 164.392 243.211,164.005 242.851,164.011 243.046 M197.400 246.000 C 198.259 246.880,199.052 247.600,199.162 247.600 C 199.272 247.600,198.659 246.880,197.800 246.000 C 196.941 245.120,196.148 244.400,196.038 244.400 C 195.928 244.400,196.541 245.120,197.400 246.000 M202.591 250.700 C 204.345 252.515,205.933 254.000,206.119 254.000 C 206.305 254.000,206.206 253.775,205.898 253.500 C 205.591 253.225,204.003 251.740,202.370 250.200 L 199.400 247.401 202.591 250.700 M170.600 249.010 C 171.480 249.552,172.456 249.997,172.768 249.998 C 173.080 249.999,172.450 249.551,171.368 249.002 C 168.872 247.736,168.536 247.739,170.600 249.010 M174.000 250.394 C 174.330 250.611,175.035 250.791,175.567 250.794 C 176.851 250.802,176.525 250.575,174.800 250.258 C 173.815 250.077,173.578 250.118,174.000 250.394 M148.667 254.267 C 148.520 254.413,148.400 257.008,148.400 260.033 C 148.400 263.391,148.240 265.613,147.990 265.737 C 147.764 265.849,147.810 265.894,148.090 265.837 C 148.468 265.761,148.629 264.261,148.711 260.028 C 148.815 254.694,148.867 254.356,149.511 254.860 C 150.133 255.348,150.147 255.332,149.651 254.700 C 149.028 253.905,149.028 253.905,148.667 254.267 M207.200 255.741 C 207.200 256.064,206.637 256.802,205.950 257.381 C 205.262 257.959,204.779 258.512,204.876 258.609 C 204.973 258.706,205.732 258.089,206.562 257.239 C 207.500 256.278,207.907 255.590,207.636 255.422 C 207.396 255.274,207.200 255.417,207.200 255.741 M150.000 255.725 C 150.000 255.794,150.585 256.379,151.300 257.025 L 152.600 258.200 151.425 256.900 C 150.330 255.688,150.000 255.416,150.000 255.725 M161.200 263.796 C 161.200 264.070,163.649 265.284,163.832 265.101 C 163.919 265.014,163.362 264.644,162.595 264.278 C 161.828 263.912,161.200 263.695,161.200 263.796 M167.141 266.501 C 167.343 266.703,167.933 266.801,168.454 266.719 C 169.255 266.593,169.198 266.537,168.087 266.352 C 167.293 266.221,166.919 266.279,167.141 266.501 M190.600 266.400 L 189.400 266.705 190.476 266.753 C 191.068 266.779,191.664 266.620,191.800 266.400 C 191.936 266.180,191.992 266.021,191.924 266.047 C 191.856 266.073,191.260 266.232,190.600 266.400 M170.446 267.237 C 170.965 267.565,174.329 267.772,173.967 267.453 C 173.875 267.372,172.921 267.212,171.846 267.096 C 170.651 266.968,170.107 267.022,170.446 267.237 M186.600 267.200 L 184.600 267.474 186.400 267.531 C 187.390 267.562,188.470 267.413,188.800 267.200 C 189.130 266.987,189.220 266.838,189.000 266.869 C 188.780 266.900,187.700 267.049,186.600 267.200 M175.505 267.883 C 176.002 267.979,176.722 267.975,177.105 267.875 C 177.487 267.775,177.080 267.696,176.200 267.701 C 175.320 267.705,175.007 267.787,175.505 267.883 M181.900 267.882 C 182.395 267.978,183.205 267.978,183.700 267.882 C 184.195 267.787,183.790 267.709,182.800 267.709 C 181.810 267.709,181.405 267.787,181.900 267.882 M178.705 268.283 C 179.202 268.379,179.922 268.375,180.305 268.275 C 180.687 268.175,180.280 268.096,179.400 268.101 C 178.520 268.105,178.207 268.187,178.705 268.283 " stroke="none" fill="#6873c4" fill-rule="evenodd"></path><path id="path4" d="M85.384 194.100 C 85.279 194.375,85.240 210.620,85.297 230.200 L 85.400 265.800 85.600 229.700 C 85.710 209.845,85.749 193.600,85.687 193.600 C 85.626 193.600,85.489 193.825,85.384 194.100 M160.093 226.800 C 160.093 227.570,160.175 227.885,160.276 227.500 C 160.376 227.115,160.376 226.485,160.276 226.100 C 160.175 225.715,160.093 226.030,160.093 226.800 M160.093 232.400 C 160.093 233.170,160.175 233.485,160.276 233.100 C 160.376 232.715,160.376 232.085,160.276 231.700 C 160.175 231.315,160.093 231.630,160.093 232.400 M110.100 235.899 C 113.785 235.965,119.815 235.965,123.500 235.899 C 127.185 235.833,124.170 235.779,116.800 235.779 C 109.430 235.779,106.415 235.833,110.100 235.899 M200.783 249.300 C 202.441 251.066,202.800 251.384,202.800 251.083 C 202.800 251.019,201.945 250.164,200.900 249.183 L 199.000 247.400 200.783 249.300 M90.300 265.898 C 92.555 265.970,96.245 265.970,98.500 265.898 C 100.755 265.827,98.910 265.769,94.400 265.769 C 89.890 265.769,88.045 265.827,90.300 265.898 M135.500 265.898 C 137.755 265.970,141.445 265.970,143.700 265.898 C 145.955 265.827,144.110 265.769,139.600 265.769 C 135.090 265.769,133.245 265.827,135.500 265.898 M178.505 267.887 C 179.114 267.979,180.014 267.977,180.505 267.882 C 180.997 267.787,180.500 267.711,179.400 267.714 C 178.300 267.717,177.897 267.795,178.505 267.887 " stroke="none" fill="#8690ce" fill-rule="evenodd"></path></g></svg>